<?xml version="1.0" encoding="UTF-8" standalone="no"?>
<!DOCTYPE svg PUBLIC "-//W3C//DTD SVG 1.1//EN"
 "http://www.w3.org/Graphics/SVG/1.1/DTD/svg11.dtd">
<!-- Generated by graphviz version 7.0.5 (20221223.1930)
 -->
<!-- Title: inheritance1c1a99a896 Pages: 1 -->
<svg width="512pt" height="27pt"
 viewBox="0.00 0.00 512.00 27.00" xmlns="http://www.w3.org/2000/svg" xmlns:xlink="http://www.w3.org/1999/xlink">
<g id="graph0" class="graph" transform="scale(1 1) rotate(0) translate(4 23)">
<title>inheritance1c1a99a896</title>
<!-- CLIAbstractionException -->
<g id="node1" class="node">
<title>CLIAbstractionException</title>
<g id="a_node1"><a xlink:href="../pyTooling.CLIAbstraction/pyTooling.CLIAbstraction.html#pyTooling.CLIAbstraction.CLIAbstractionException" xlink:title="CLIAbstractionException" target="_top">
<polygon fill="white" stroke="black" stroke-width="0.5" points="339,-19 150,-19 150,0 339,0 339,-19"/>
<text text-anchor="middle" x="244.5" y="-7" font-family="Vera Sans, DejaVu Sans, Liberation Sans, Arial, Helvetica, sans" font-size="10.00">CLIAbstractionException</text>
</a>
</g>
</g>
<!-- DryRunException -->
<g id="node3" class="node">
<title>DryRunException</title>
<g id="a_node3"><a xlink:href="../pyTooling.CLIAbstraction/pyTooling.CLIAbstraction.html#pyTooling.CLIAbstraction.DryRunException" xlink:title="This exception is raised if an executable is launched while in dry&#45;run mode." target="_top">
<polygon fill="white" stroke="black" stroke-width="0.5" points="504,-19 375,-19 375,0 504,0 504,-19"/>
<text text-anchor="middle" x="439.5" y="-7" font-family="Vera Sans, DejaVu Sans, Liberation Sans, Arial, Helvetica, sans" font-size="10.00">DryRunException</text>
</a>
</g>
</g>
<!-- CLIAbstractionException&#45;&gt;DryRunException -->
<g id="edge2" class="edge">
<title>CLIAbstractionException&#45;&gt;DryRunException</title>
<path fill="none" stroke="black" stroke-width="0.5" d="M339.46,-9.5C349.11,-9.5 358.81,-9.5 368.15,-9.5"/>
<polygon fill="black" stroke="black" stroke-width="0.5" points="368.79,-11.25 373.79,-9.5 368.79,-7.75 368.79,-11.25"/>
</g>
<!-- ExceptionBase -->
<g id="node2" class="node">
<title>ExceptionBase</title>
<g id="a_node2"><a xlink:title="Base exception derived from :exc:`Exception &lt;python:Exception&gt;` for all custom exceptions.">
<polygon fill="white" stroke="black" stroke-width="0.5" points="114,-19 0,-19 0,0 114,0 114,-19"/>
<text text-anchor="middle" x="57" y="-7" font-family="Vera Sans, DejaVu Sans, Liberation Sans, Arial, Helvetica, sans" font-size="10.00">ExceptionBase</text>
</a>
</g>
</g>
<!-- ExceptionBase&#45;&gt;CLIAbstractionException -->
<g id="edge1" class="edge">
<title>ExceptionBase&#45;&gt;CLIAbstractionException</title>
<path fill="none" stroke="black" stroke-width="0.5" d="M114.41,-9.5C123.59,-9.5 133.34,-9.5 143.2,-9.5"/>
<polygon fill="black" stroke="black" stroke-width="0.5" points="143.93,-11.25 148.93,-9.5 143.93,-7.75 143.93,-11.25"/>
</g>
</g>
</svg>
