<?xml version="1.0" encoding="UTF-8" standalone="no"?>
<!DOCTYPE svg PUBLIC "-//W3C//DTD SVG 1.1//EN"
 "http://www.w3.org/Graphics/SVG/1.1/DTD/svg11.dtd">
<!-- Generated by graphviz version 2.49.3 (20211027.1534)
 -->
<!-- Title: inheritanced8375533c1 Pages: 1 -->
<svg width="483pt" height="64pt"
 viewBox="0.00 0.00 483.00 64.00" xmlns="http://www.w3.org/2000/svg" xmlns:xlink="http://www.w3.org/1999/xlink">
<g id="graph0" class="graph" transform="scale(1 1) rotate(0) translate(4 60)">
<title>inheritanced8375533c1</title>
<!-- CommandLineArgument -->
<g id="node1" class="node">
<title>CommandLineArgument</title>
<g id="a_node1"><a xlink:href="../pyTooling.CLIAbstraction/pyTooling.CLIAbstraction.Argument.html#pyTooling.CLIAbstraction.Argument.CommandLineArgument" xlink:title="Base&#45;class for all *Argument* classes." target="_top">
<polygon fill="white" stroke="black" stroke-width="0.5" points="159,-56 0,-56 0,-37 159,-37 159,-56"/>
<text text-anchor="middle" x="79.5" y="-44" font-family="Vera Sans, DejaVu Sans, Liberation Sans, Arial, Helvetica, sans" font-size="10.00">CommandLineArgument</text>
</a>
</g>
</g>
<!-- ValuedArgument -->
<g id="node4" class="node">
<title>ValuedArgument</title>
<g id="a_node4"><a xlink:href="../pyTooling.CLIAbstraction/pyTooling.CLIAbstraction.Argument.html#pyTooling.CLIAbstraction.Argument.ValuedArgument" xlink:title="Base&#45;class for all command line arguments with a value." target="_top">
<polygon fill="white" stroke="black" stroke-width="0.5" points="317,-37 195,-37 195,-18 317,-18 317,-37"/>
<text text-anchor="middle" x="256" y="-25" font-family="Vera Sans, DejaVu Sans, Liberation Sans, Arial, Helvetica, sans" font-size="10.00">ValuedArgument</text>
</a>
</g>
</g>
<!-- CommandLineArgument&#45;&gt;ValuedArgument -->
<g id="edge2" class="edge">
<title>CommandLineArgument&#45;&gt;ValuedArgument</title>
<path fill="none" stroke="black" stroke-width="0.5" d="M159.07,-37.94C169.32,-36.83 179.72,-35.7 189.72,-34.61"/>
<polygon fill="black" stroke="black" stroke-width="0.5" points="190.12,-36.32 194.91,-34.04 189.75,-32.84 190.12,-36.32"/>
</g>
<!-- Generic -->
<g id="node2" class="node">
<title>Generic</title>
<g id="a_node2"><a xlink:title="Abstract base class for generic types.">
<polygon fill="white" stroke="black" stroke-width="0.5" points="114,-19 45,-19 45,0 114,0 114,-19"/>
<text text-anchor="middle" x="79.5" y="-7" font-family="Vera Sans, DejaVu Sans, Liberation Sans, Arial, Helvetica, sans" font-size="10.00">Generic</text>
</a>
</g>
</g>
<!-- Generic&#45;&gt;ValuedArgument -->
<g id="edge3" class="edge">
<title>Generic&#45;&gt;ValuedArgument</title>
<path fill="none" stroke="black" stroke-width="0.5" d="M114.15,-12.97C135.59,-15.18 164.1,-18.12 189.85,-20.78"/>
<polygon fill="black" stroke="black" stroke-width="0.5" points="189.81,-22.53 194.96,-21.31 190.17,-19.05 189.81,-22.53"/>
</g>
<!-- StringArgument -->
<g id="node3" class="node">
<title>StringArgument</title>
<g id="a_node3"><a xlink:href="../pyTooling.CLIAbstraction/pyTooling.CLIAbstraction.Argument.html#pyTooling.CLIAbstraction.Argument.StringArgument" xlink:title="Represents a simple string argument." target="_top">
<polygon fill="white" stroke="black" stroke-width="0.5" points="475,-37 353,-37 353,-18 475,-18 475,-37"/>
<text text-anchor="middle" x="414" y="-25" font-family="Vera Sans, DejaVu Sans, Liberation Sans, Arial, Helvetica, sans" font-size="10.00">StringArgument</text>
</a>
</g>
</g>
<!-- ValuedArgument&#45;&gt;StringArgument -->
<g id="edge1" class="edge">
<title>ValuedArgument&#45;&gt;StringArgument</title>
<path fill="none" stroke="black" stroke-width="0.5" d="M317.31,-27.5C327.24,-27.5 337.58,-27.5 347.62,-27.5"/>
<polygon fill="black" stroke="black" stroke-width="0.5" points="347.85,-29.25 352.85,-27.5 347.85,-25.75 347.85,-29.25"/>
</g>
</g>
</svg>
