<?xml version="1.0" encoding="UTF-8" standalone="no"?>
<!DOCTYPE svg PUBLIC "-//W3C//DTD SVG 1.1//EN"
 "http://www.w3.org/Graphics/SVG/1.1/DTD/svg11.dtd">
<!-- Generated by graphviz version 2.49.3 (20211027.1534)
 -->
<!-- Title: inheritance4d38372ec3 Pages: 1 -->
<svg width="576pt" height="69pt"
 viewBox="0.00 0.00 576.00 68.99" xmlns="http://www.w3.org/2000/svg" xmlns:xlink="http://www.w3.org/1999/xlink">
<g id="graph0" class="graph" transform="scale(0.83 0.83) rotate(0) translate(4 79)">
<title>inheritance4d38372ec3</title>
<!-- CommandLineArgument -->
<g id="node1" class="node">
<title>CommandLineArgument</title>
<g id="a_node1"><a xlink:href="../pyTooling.CLIAbstraction.Argument.html#pyTooling.CLIAbstraction.Argument.CommandLineArgument" xlink:title="Base&#45;class for all *Argument* classes." target="_top">
<polygon fill="white" stroke="black" stroke-width="0.5" points="159,-56 0,-56 0,-37 159,-37 159,-56"/>
<text text-anchor="middle" x="79.5" y="-44" font-family="Vera Sans, DejaVu Sans, Liberation Sans, Arial, Helvetica, sans" font-size="10.00">CommandLineArgument</text>
</a>
</g>
</g>
<!-- NamedArgument -->
<g id="node3" class="node">
<title>NamedArgument</title>
<g id="a_node3"><a xlink:href="../pyTooling.CLIAbstraction.Argument.html#pyTooling.CLIAbstraction.Argument.NamedArgument" xlink:title="Base&#45;class for all command line arguments with a name." target="_top">
<polygon fill="white" stroke="black" stroke-width="0.5" points="313,-75 199,-75 199,-56 313,-56 313,-75"/>
<text text-anchor="middle" x="256" y="-63" font-family="Vera Sans, DejaVu Sans, Liberation Sans, Arial, Helvetica, sans" font-size="10.00">NamedArgument</text>
</a>
</g>
</g>
<!-- CommandLineArgument&#45;&gt;NamedArgument -->
<g id="edge1" class="edge">
<title>CommandLineArgument&#45;&gt;NamedArgument</title>
<path fill="none" stroke="black" stroke-width="0.5" d="M159.07,-55.06C170.68,-56.32 182.5,-57.61 193.69,-58.82"/>
<polygon fill="black" stroke="black" stroke-width="0.5" points="193.63,-60.58 198.79,-59.38 194,-57.1 193.63,-60.58"/>
</g>
<!-- ValuedArgument -->
<g id="node5" class="node">
<title>ValuedArgument</title>
<g id="a_node5"><a xlink:href="../pyTooling.CLIAbstraction.Argument.html#pyTooling.CLIAbstraction.Argument.ValuedArgument" xlink:title="Base&#45;class for all command line arguments with a value." target="_top">
<polygon fill="white" stroke="black" stroke-width="0.5" points="317,-38 195,-38 195,-19 317,-19 317,-38"/>
<text text-anchor="middle" x="256" y="-26" font-family="Vera Sans, DejaVu Sans, Liberation Sans, Arial, Helvetica, sans" font-size="10.00">ValuedArgument</text>
</a>
</g>
</g>
<!-- CommandLineArgument&#45;&gt;ValuedArgument -->
<g id="edge5" class="edge">
<title>CommandLineArgument&#45;&gt;ValuedArgument</title>
<path fill="none" stroke="black" stroke-width="0.5" d="M159.07,-38.4C169.32,-37.34 179.72,-36.26 189.72,-35.23"/>
<polygon fill="black" stroke="black" stroke-width="0.5" points="190.11,-36.95 194.91,-34.7 189.75,-33.47 190.11,-36.95"/>
</g>
<!-- Generic -->
<g id="node2" class="node">
<title>Generic</title>
<g id="a_node2"><a xlink:title="Abstract base class for generic types.">
<polygon fill="white" stroke="black" stroke-width="0.5" points="114,-19 45,-19 45,0 114,0 114,-19"/>
<text text-anchor="middle" x="79.5" y="-7" font-family="Vera Sans, DejaVu Sans, Liberation Sans, Arial, Helvetica, sans" font-size="10.00">Generic</text>
</a>
</g>
</g>
<!-- NamedTupledArgument -->
<g id="node4" class="node">
<title>NamedTupledArgument</title>
<g id="a_node4"><a xlink:title="Class and base&#45;class for all TupleFlag classes, which represents an argument with separate value.">
<polygon fill="white" stroke="black" stroke-width="0.5" points="512,-38 353,-38 353,-19 512,-19 512,-38"/>
<text text-anchor="middle" x="432.5" y="-26" font-family="Vera Sans, DejaVu Sans, Liberation Sans, Arial, Helvetica, sans" font-size="10.00">NamedTupledArgument</text>
</a>
</g>
</g>
<!-- Generic&#45;&gt;NamedTupledArgument -->
<g id="edge4" class="edge">
<title>Generic&#45;&gt;NamedTupledArgument</title>
<path fill="none" stroke="black" stroke-width="0.5" d="M114.25,-7.76C160.2,-5.79 244.98,-3.57 317,-9.5 337.73,-11.21 360.37,-14.63 380,-18.1"/>
<polygon fill="black" stroke="black" stroke-width="0.5" points="379.69,-19.83 384.92,-18.99 380.31,-16.38 379.69,-19.83"/>
</g>
<!-- Generic&#45;&gt;ValuedArgument -->
<g id="edge6" class="edge">
<title>Generic&#45;&gt;ValuedArgument</title>
<path fill="none" stroke="black" stroke-width="0.5" d="M114.15,-13.16C135.59,-15.5 164.1,-18.6 189.85,-21.41"/>
<polygon fill="black" stroke="black" stroke-width="0.5" points="189.8,-23.16 194.96,-21.96 190.18,-19.68 189.8,-23.16"/>
</g>
<!-- NamedArgument&#45;&gt;NamedTupledArgument -->
<g id="edge2" class="edge">
<title>NamedArgument&#45;&gt;NamedTupledArgument</title>
<path fill="none" stroke="black" stroke-width="0.5" d="M301.94,-55.97C326.27,-50.81 356.39,-44.43 381.47,-39.11"/>
<polygon fill="black" stroke="black" stroke-width="0.5" points="381.88,-40.81 386.41,-38.06 381.16,-37.39 381.88,-40.81"/>
</g>
<!-- WindowsTupleFlag -->
<g id="node6" class="node">
<title>WindowsTupleFlag</title>
<g id="a_node6"><a xlink:href="../pyTooling.CLIAbstraction/pyTooling.CLIAbstraction.ValuedTupleFlag.html#pyTooling.CLIAbstraction.ValuedTupleFlag.WindowsTupleFlag" xlink:title="Represents a :class:`ValuedTupleArgument` with a single slash in front of the switch name." target="_top">
<polygon fill="white" stroke="black" stroke-width="0.5" points="685,-38 548,-38 548,-19 685,-19 685,-38"/>
<text text-anchor="middle" x="616.5" y="-26" font-family="Vera Sans, DejaVu Sans, Liberation Sans, Arial, Helvetica, sans" font-size="10.00">WindowsTupleFlag</text>
</a>
</g>
</g>
<!-- NamedTupledArgument&#45;&gt;WindowsTupleFlag -->
<g id="edge7" class="edge">
<title>NamedTupledArgument&#45;&gt;WindowsTupleFlag</title>
<path fill="none" stroke="black" stroke-width="0.5" d="M512,-28.5C522.16,-28.5 532.53,-28.5 542.6,-28.5"/>
<polygon fill="black" stroke="black" stroke-width="0.5" points="542.83,-30.25 547.83,-28.5 542.83,-26.75 542.83,-30.25"/>
</g>
<!-- ValuedArgument&#45;&gt;NamedTupledArgument -->
<g id="edge3" class="edge">
<title>ValuedArgument&#45;&gt;NamedTupledArgument</title>
<path fill="none" stroke="black" stroke-width="0.5" d="M317.05,-28.5C326.97,-28.5 337.4,-28.5 347.77,-28.5"/>
<polygon fill="black" stroke="black" stroke-width="0.5" points="347.85,-30.25 352.85,-28.5 347.85,-26.75 347.85,-30.25"/>
</g>
</g>
</svg>
