<?xml version="1.0" encoding="UTF-8" standalone="no"?>
<!DOCTYPE svg PUBLIC "-//W3C//DTD SVG 1.1//EN"
 "http://www.w3.org/Graphics/SVG/1.1/DTD/svg11.dtd">
<!-- Generated by graphviz version 7.0.5 (20221223.1930)
 -->
<!-- Title: inheritance966fbbbad5 Pages: 1 -->
<svg width="576pt" height="50pt"
 viewBox="0.00 0.00 576.00 50.01" xmlns="http://www.w3.org/2000/svg" xmlns:xlink="http://www.w3.org/1999/xlink">
<g id="graph0" class="graph" transform="scale(0.60251 0.60251) rotate(0) translate(4 79)">
<title>inheritance966fbbbad5</title>
<!-- CommandLineArgument -->
<g id="node1" class="node">
<title>CommandLineArgument</title>
<g id="a_node1"><a xlink:href="../pyTooling.CLIAbstraction.Argument.html#pyTooling.CLIAbstraction.Argument.CommandLineArgument" xlink:title="Base&#45;class for all *Argument* classes." target="_top">
<polygon fill="white" stroke="black" stroke-width="0.5" points="159,-56 0,-56 0,-37 159,-37 159,-56"/>
<text text-anchor="middle" x="79.5" y="-44" font-family="Vera Sans, DejaVu Sans, Liberation Sans, Arial, Helvetica, sans" font-size="10.00">CommandLineArgument</text>
</a>
</g>
</g>
<!-- NamedArgument -->
<g id="node4" class="node">
<title>NamedArgument</title>
<g id="a_node4"><a xlink:href="../pyTooling.CLIAbstraction.Argument.html#pyTooling.CLIAbstraction.Argument.NamedArgument" xlink:title="Base&#45;class for all command line arguments with a name." target="_top">
<polygon fill="white" stroke="black" stroke-width="0.5" points="313,-75 199,-75 199,-56 313,-56 313,-75"/>
<text text-anchor="middle" x="256" y="-63" font-family="Vera Sans, DejaVu Sans, Liberation Sans, Arial, Helvetica, sans" font-size="10.00">NamedArgument</text>
</a>
</g>
</g>
<!-- CommandLineArgument&#45;&gt;NamedArgument -->
<g id="edge4" class="edge">
<title>CommandLineArgument&#45;&gt;NamedArgument</title>
<path fill="none" stroke="black" stroke-width="0.5" d="M159.33,-55.08C170.43,-56.29 181.71,-57.52 192.45,-58.69"/>
<polygon fill="black" stroke="black" stroke-width="0.5" points="192.79,-60.49 197.95,-59.29 193.17,-57.01 192.79,-60.49"/>
</g>
<!-- ValuedArgument -->
<g id="node5" class="node">
<title>ValuedArgument</title>
<g id="a_node5"><a xlink:href="../pyTooling.CLIAbstraction.Argument.html#pyTooling.CLIAbstraction.Argument.ValuedArgument" xlink:title="Base&#45;class for all command line arguments with a value." target="_top">
<polygon fill="white" stroke="black" stroke-width="0.5" points="317,-38 195,-38 195,-19 317,-19 317,-38"/>
<text text-anchor="middle" x="256" y="-26" font-family="Vera Sans, DejaVu Sans, Liberation Sans, Arial, Helvetica, sans" font-size="10.00">ValuedArgument</text>
</a>
</g>
</g>
<!-- CommandLineArgument&#45;&gt;ValuedArgument -->
<g id="edge7" class="edge">
<title>CommandLineArgument&#45;&gt;ValuedArgument</title>
<path fill="none" stroke="black" stroke-width="0.5" d="M159.33,-38.37C168.94,-37.38 178.69,-36.37 188.11,-35.4"/>
<polygon fill="black" stroke="black" stroke-width="0.5" points="189.02,-37.07 193.81,-34.81 188.66,-33.58 189.02,-37.07"/>
</g>
<!-- Generic -->
<g id="node2" class="node">
<title>Generic</title>
<g id="a_node2"><a xlink:title="Abstract base class for generic types.">
<polygon fill="white" stroke="black" stroke-width="0.5" points="114,-19 45,-19 45,0 114,0 114,-19"/>
<text text-anchor="middle" x="79.5" y="-7" font-family="Vera Sans, DejaVu Sans, Liberation Sans, Arial, Helvetica, sans" font-size="10.00">Generic</text>
</a>
</g>
</g>
<!-- NamedAndValuedArgument -->
<g id="node3" class="node">
<title>NamedAndValuedArgument</title>
<g id="a_node3"><a xlink:title="Base&#45;class for all command line arguments with a name and a value.">
<polygon fill="white" stroke="black" stroke-width="0.5" points="535,-38 353,-38 353,-19 535,-19 535,-38"/>
<text text-anchor="middle" x="444" y="-26" font-family="Vera Sans, DejaVu Sans, Liberation Sans, Arial, Helvetica, sans" font-size="10.00">NamedAndValuedArgument</text>
</a>
</g>
</g>
<!-- Generic&#45;&gt;NamedAndValuedArgument -->
<g id="edge3" class="edge">
<title>Generic&#45;&gt;NamedAndValuedArgument</title>
<path fill="none" stroke="black" stroke-width="0.5" d="M114.24,-7.92C160.18,-6.12 244.94,-4.1 317,-9.5 338.49,-11.11 361.87,-14.25 382.59,-17.52"/>
<polygon fill="black" stroke="black" stroke-width="0.5" points="382.97,-19.35 388.19,-18.41 383.53,-15.89 382.97,-19.35"/>
</g>
<!-- Generic&#45;&gt;ValuedArgument -->
<g id="edge8" class="edge">
<title>Generic&#45;&gt;ValuedArgument</title>
<path fill="none" stroke="black" stroke-width="0.5" d="M114.15,-13.16C135.14,-15.45 162.91,-18.47 188.23,-21.23"/>
<polygon fill="black" stroke="black" stroke-width="0.5" points="188.7,-23.04 193.86,-21.84 189.08,-19.56 188.7,-23.04"/>
</g>
<!-- OptionalValuedFlag -->
<g id="node6" class="node">
<title>OptionalValuedFlag</title>
<g id="a_node6"><a xlink:href="../pyTooling.CLIAbstraction/pyTooling.CLIAbstraction.OptionalValuedFlag.html#pyTooling.CLIAbstraction.OptionalValuedFlag.OptionalValuedFlag" xlink:title="Class and base&#45;class for all OptionalValuedFlag classes, which represents a flag argument with data." target="_top">
<polygon fill="white" stroke="black" stroke-width="0.5" points="723,-38 571,-38 571,-19 723,-19 723,-38"/>
<text text-anchor="middle" x="647" y="-26" font-family="Vera Sans, DejaVu Sans, Liberation Sans, Arial, Helvetica, sans" font-size="10.00">OptionalValuedFlag</text>
</a>
</g>
</g>
<!-- NamedAndValuedArgument&#45;&gt;OptionalValuedFlag -->
<g id="edge5" class="edge">
<title>NamedAndValuedArgument&#45;&gt;OptionalValuedFlag</title>
<path fill="none" stroke="black" stroke-width="0.5" d="M535.21,-28.5C544.88,-28.5 554.69,-28.5 564.25,-28.5"/>
<polygon fill="black" stroke="black" stroke-width="0.5" points="564.75,-30.25 569.75,-28.5 564.75,-26.75 564.75,-30.25"/>
</g>
<!-- NamedArgument&#45;&gt;NamedAndValuedArgument -->
<g id="edge1" class="edge">
<title>NamedArgument&#45;&gt;NamedAndValuedArgument</title>
<path fill="none" stroke="black" stroke-width="0.5" d="M306.84,-55.58C331.45,-50.69 361.23,-44.77 386.65,-39.71"/>
<polygon fill="black" stroke="black" stroke-width="0.5" points="387.71,-41.28 392.28,-38.59 387.03,-37.85 387.71,-41.28"/>
</g>
<!-- ValuedArgument&#45;&gt;NamedAndValuedArgument -->
<g id="edge2" class="edge">
<title>ValuedArgument&#45;&gt;NamedAndValuedArgument</title>
<path fill="none" stroke="black" stroke-width="0.5" d="M317.39,-28.5C326.61,-28.5 336.33,-28.5 346.1,-28.5"/>
<polygon fill="black" stroke="black" stroke-width="0.5" points="346.77,-30.25 351.77,-28.5 346.77,-26.75 346.77,-30.25"/>
</g>
<!-- ShortOptionalValuedFlag -->
<g id="node7" class="node">
<title>ShortOptionalValuedFlag</title>
<g id="a_node7"><a xlink:href="../pyTooling.CLIAbstraction/pyTooling.CLIAbstraction.OptionalValuedFlag.html#pyTooling.CLIAbstraction.OptionalValuedFlag.ShortOptionalValuedFlag" xlink:title="Represents a :py:class:`OptionalValuedFlag` with a single dash." target="_top">
<polygon fill="white" stroke="black" stroke-width="0.5" points="948,-38 759,-38 759,-19 948,-19 948,-38"/>
<text text-anchor="middle" x="853.5" y="-26" font-family="Vera Sans, DejaVu Sans, Liberation Sans, Arial, Helvetica, sans" font-size="10.00">ShortOptionalValuedFlag</text>
</a>
</g>
</g>
<!-- OptionalValuedFlag&#45;&gt;ShortOptionalValuedFlag -->
<g id="edge6" class="edge">
<title>OptionalValuedFlag&#45;&gt;ShortOptionalValuedFlag</title>
<path fill="none" stroke="black" stroke-width="0.5" d="M723.28,-28.5C732.71,-28.5 742.48,-28.5 752.22,-28.5"/>
<polygon fill="black" stroke="black" stroke-width="0.5" points="752.86,-30.25 757.86,-28.5 752.86,-26.75 752.86,-30.25"/>
</g>
</g>
</svg>
