<?xml version="1.0" encoding="UTF-8" standalone="no"?>
<!DOCTYPE svg PUBLIC "-//W3C//DTD SVG 1.1//EN"
 "http://www.w3.org/Graphics/SVG/1.1/DTD/svg11.dtd">
<!-- Generated by graphviz version 2.49.3 (20211027.1534)
 -->
<!-- Title: inheritance91c7710b81 Pages: 1 -->
<svg width="573pt" height="27pt"
 viewBox="0.00 0.00 573.00 27.00" xmlns="http://www.w3.org/2000/svg" xmlns:xlink="http://www.w3.org/1999/xlink">
<g id="graph0" class="graph" transform="scale(1 1) rotate(0) translate(4 23)">
<title>inheritance91c7710b81</title>
<!-- CommandLineArgument -->
<g id="node1" class="node">
<title>CommandLineArgument</title>
<g id="a_node1"><a xlink:href="../pyTooling.CLIAbstraction.Argument.html#pyTooling.CLIAbstraction.Argument.CommandLineArgument" xlink:title="Base&#45;class for all *Argument* classes." target="_top">
<polygon fill="white" stroke="black" stroke-width="0.5" points="159,-19 0,-19 0,0 159,0 159,-19"/>
<text text-anchor="middle" x="79.5" y="-7" font-family="Vera Sans, DejaVu Sans, Liberation Sans, Arial, Helvetica, sans" font-size="10.00">CommandLineArgument</text>
</a>
</g>
</g>
<!-- NamedArgument -->
<g id="node3" class="node">
<title>NamedArgument</title>
<g id="a_node3"><a xlink:href="../pyTooling.CLIAbstraction.Argument.html#pyTooling.CLIAbstraction.Argument.NamedArgument" xlink:title="Base&#45;class for all command line arguments with a name." target="_top">
<polygon fill="white" stroke="black" stroke-width="0.5" points="309,-19 195,-19 195,0 309,0 309,-19"/>
<text text-anchor="middle" x="252" y="-7" font-family="Vera Sans, DejaVu Sans, Liberation Sans, Arial, Helvetica, sans" font-size="10.00">NamedArgument</text>
</a>
</g>
</g>
<!-- CommandLineArgument&#45;&gt;NamedArgument -->
<g id="edge3" class="edge">
<title>CommandLineArgument&#45;&gt;NamedArgument</title>
<path fill="none" stroke="black" stroke-width="0.5" d="M159.26,-9.5C169.52,-9.5 179.9,-9.5 189.8,-9.5"/>
<polygon fill="black" stroke="black" stroke-width="0.5" points="189.94,-11.25 194.94,-9.5 189.94,-7.75 189.94,-11.25"/>
</g>
<!-- FlagArgument -->
<g id="node2" class="node">
<title>FlagArgument</title>
<g id="a_node2"><a xlink:href="../pyTooling.CLIAbstraction/pyTooling.CLIAbstraction.Flag.html#pyTooling.CLIAbstraction.Flag.FlagArgument" xlink:title="Base&#45;class for all Flag classes, which represents a simple flag argument like ``&#45;v`` or ``&#45;&#45;verbose``." target="_top">
<polygon fill="white" stroke="black" stroke-width="0.5" points="452,-19 345,-19 345,0 452,0 452,-19"/>
<text text-anchor="middle" x="398.5" y="-7" font-family="Vera Sans, DejaVu Sans, Liberation Sans, Arial, Helvetica, sans" font-size="10.00">FlagArgument</text>
</a>
</g>
</g>
<!-- LongFlag -->
<g id="node4" class="node">
<title>LongFlag</title>
<g id="a_node4"><a xlink:href="../pyTooling.CLIAbstraction/pyTooling.CLIAbstraction.Flag.html#pyTooling.CLIAbstraction.Flag.LongFlag" xlink:title="Represents a :class:`~pyTooling.CLIAbstraction.Flag.Flag` argument with a double dash." target="_top">
<polygon fill="white" stroke="black" stroke-width="0.5" points="565,-19 488,-19 488,0 565,0 565,-19"/>
<text text-anchor="middle" x="526.5" y="-7" font-family="Vera Sans, DejaVu Sans, Liberation Sans, Arial, Helvetica, sans" font-size="10.00">LongFlag</text>
</a>
</g>
</g>
<!-- FlagArgument&#45;&gt;LongFlag -->
<g id="edge2" class="edge">
<title>FlagArgument&#45;&gt;LongFlag</title>
<path fill="none" stroke="black" stroke-width="0.5" d="M452.21,-9.5C462.43,-9.5 473.02,-9.5 482.87,-9.5"/>
<polygon fill="black" stroke="black" stroke-width="0.5" points="482.95,-11.25 487.95,-9.5 482.95,-7.75 482.95,-11.25"/>
</g>
<!-- NamedArgument&#45;&gt;FlagArgument -->
<g id="edge1" class="edge">
<title>NamedArgument&#45;&gt;FlagArgument</title>
<path fill="none" stroke="black" stroke-width="0.5" d="M309.28,-9.5C319.27,-9.5 329.68,-9.5 339.71,-9.5"/>
<polygon fill="black" stroke="black" stroke-width="0.5" points="339.92,-11.25 344.92,-9.5 339.92,-7.75 339.92,-11.25"/>
</g>
</g>
</svg>
