<?xml version="1.0" encoding="UTF-8" standalone="no"?>
<!DOCTYPE svg PUBLIC "-//W3C//DTD SVG 1.1//EN"
 "http://www.w3.org/Graphics/SVG/1.1/DTD/svg11.dtd">
<!-- Generated by graphviz version 7.0.5 (20221223.1930)
 -->
<!-- Title: inheritanceff3c957bf9 Pages: 1 -->
<svg width="576pt" height="58pt"
 viewBox="0.00 0.00 576.00 58.24" xmlns="http://www.w3.org/2000/svg" xmlns:xlink="http://www.w3.org/1999/xlink">
<g id="graph0" class="graph" transform="scale(0.909953 0.909953) rotate(0) translate(4 60)">
<title>inheritanceff3c957bf9</title>
<!-- BooleanFlag -->
<g id="node1" class="node">
<title>BooleanFlag</title>
<g id="a_node1"><a xlink:href="../pyTooling.CLIAbstraction/pyTooling.CLIAbstraction.BooleanFlag.html#pyTooling.CLIAbstraction.BooleanFlag.BooleanFlag" xlink:title="Class and base&#45;class for all BooleanFlag classes, which represents a flag argument with different pattern" target="_top">
<polygon fill="white" stroke="black" stroke-width="0.5" points="452,-37 353,-37 353,-18 452,-18 452,-37"/>
<text text-anchor="middle" x="402.5" y="-25" font-family="Vera Sans, DejaVu Sans, Liberation Sans, Arial, Helvetica, sans" font-size="10.00">BooleanFlag</text>
</a>
</g>
</g>
<!-- ShortBooleanFlag -->
<g id="node6" class="node">
<title>ShortBooleanFlag</title>
<g id="a_node6"><a xlink:href="../pyTooling.CLIAbstraction/pyTooling.CLIAbstraction.BooleanFlag.html#pyTooling.CLIAbstraction.BooleanFlag.ShortBooleanFlag" xlink:title="Represents a :py:class:`BooleanFlag` with a single dash." target="_top">
<polygon fill="white" stroke="black" stroke-width="0.5" points="625,-37 488,-37 488,-18 625,-18 625,-37"/>
<text text-anchor="middle" x="556.5" y="-25" font-family="Vera Sans, DejaVu Sans, Liberation Sans, Arial, Helvetica, sans" font-size="10.00">ShortBooleanFlag</text>
</a>
</g>
</g>
<!-- BooleanFlag&#45;&gt;ShortBooleanFlag -->
<g id="edge4" class="edge">
<title>BooleanFlag&#45;&gt;ShortBooleanFlag</title>
<path fill="none" stroke="black" stroke-width="0.5" d="M452.43,-27.5C461.61,-27.5 471.4,-27.5 481.16,-27.5"/>
<polygon fill="black" stroke="black" stroke-width="0.5" points="481.8,-29.25 486.8,-27.5 481.8,-25.75 481.8,-29.25"/>
</g>
<!-- NamedArgument -->
<g id="node2" class="node">
<title>NamedArgument</title>
<g id="a_node2"><a xlink:href="../pyTooling.CLIAbstraction.Argument.html#pyTooling.CLIAbstraction.Argument.NamedArgument" xlink:title="Base&#45;class for all command line arguments with a name." target="_top">
<polygon fill="white" stroke="black" stroke-width="0.5" points="313,-56 199,-56 199,-37 313,-37 313,-56"/>
<text text-anchor="middle" x="256" y="-44" font-family="Vera Sans, DejaVu Sans, Liberation Sans, Arial, Helvetica, sans" font-size="10.00">NamedArgument</text>
</a>
</g>
</g>
<!-- NamedArgument&#45;&gt;BooleanFlag -->
<g id="edge1" class="edge">
<title>NamedArgument&#45;&gt;BooleanFlag</title>
<path fill="none" stroke="black" stroke-width="0.5" d="M313.28,-39.1C324.15,-37.67 335.52,-36.18 346.34,-34.75"/>
<polygon fill="black" stroke="black" stroke-width="0.5" points="347.17,-36.41 351.9,-34.02 346.71,-32.94 347.17,-36.41"/>
</g>
<!-- ValuedArgument -->
<g id="node3" class="node">
<title>ValuedArgument</title>
<g id="a_node3"><a xlink:href="../pyTooling.CLIAbstraction.Argument.html#pyTooling.CLIAbstraction.Argument.ValuedArgument" xlink:title="Base&#45;class for all command line arguments with a value." target="_top">
<polygon fill="white" stroke="black" stroke-width="0.5" points="317,-19 195,-19 195,0 317,0 317,-19"/>
<text text-anchor="middle" x="256" y="-7" font-family="Vera Sans, DejaVu Sans, Liberation Sans, Arial, Helvetica, sans" font-size="10.00">ValuedArgument</text>
</a>
</g>
</g>
<!-- ValuedArgument&#45;&gt;BooleanFlag -->
<g id="edge2" class="edge">
<title>ValuedArgument&#45;&gt;BooleanFlag</title>
<path fill="none" stroke="black" stroke-width="0.5" d="M317.44,-17.03C326.99,-18.22 336.83,-19.44 346.25,-20.62"/>
<polygon fill="black" stroke="black" stroke-width="0.5" points="346.78,-22.45 351.95,-21.33 347.21,-18.97 346.78,-22.45"/>
</g>
<!-- CommandLineArgument -->
<g id="node4" class="node">
<title>CommandLineArgument</title>
<g id="a_node4"><a xlink:href="../pyTooling.CLIAbstraction.Argument.html#pyTooling.CLIAbstraction.Argument.CommandLineArgument" xlink:title="Base&#45;class for all *Argument* classes." target="_top">
<polygon fill="white" stroke="black" stroke-width="0.5" points="159,-56 0,-56 0,-37 159,-37 159,-56"/>
<text text-anchor="middle" x="79.5" y="-44" font-family="Vera Sans, DejaVu Sans, Liberation Sans, Arial, Helvetica, sans" font-size="10.00">CommandLineArgument</text>
</a>
</g>
</g>
<!-- CommandLineArgument&#45;&gt;NamedArgument -->
<g id="edge3" class="edge">
<title>CommandLineArgument&#45;&gt;NamedArgument</title>
<path fill="none" stroke="black" stroke-width="0.5" d="M159.33,-46.5C170.43,-46.5 181.71,-46.5 192.45,-46.5"/>
<polygon fill="black" stroke="black" stroke-width="0.5" points="192.94,-48.25 197.94,-46.5 192.94,-44.75 192.94,-48.25"/>
</g>
<!-- CommandLineArgument&#45;&gt;ValuedArgument -->
<g id="edge5" class="edge">
<title>CommandLineArgument&#45;&gt;ValuedArgument</title>
<path fill="none" stroke="black" stroke-width="0.5" d="M127.26,-36.58C150.25,-31.71 178.04,-25.82 201.83,-20.77"/>
<polygon fill="black" stroke="black" stroke-width="0.5" points="202.84,-22.35 207.37,-19.6 202.11,-18.92 202.84,-22.35"/>
</g>
<!-- Generic -->
<g id="node5" class="node">
<title>Generic</title>
<g id="a_node5"><a xlink:title="Abstract base class for generic types.">
<polygon fill="white" stroke="black" stroke-width="0.5" points="114,-19 45,-19 45,0 114,0 114,-19"/>
<text text-anchor="middle" x="79.5" y="-7" font-family="Vera Sans, DejaVu Sans, Liberation Sans, Arial, Helvetica, sans" font-size="10.00">Generic</text>
</a>
</g>
</g>
<!-- Generic&#45;&gt;ValuedArgument -->
<g id="edge6" class="edge">
<title>Generic&#45;&gt;ValuedArgument</title>
<path fill="none" stroke="black" stroke-width="0.5" d="M114.15,-9.5C135.14,-9.5 162.91,-9.5 188.23,-9.5"/>
<polygon fill="black" stroke="black" stroke-width="0.5" points="188.85,-11.25 193.85,-9.5 188.85,-7.75 188.85,-11.25"/>
</g>
</g>
</svg>
