<?xml version="1.0" encoding="UTF-8" standalone="no"?>
<!DOCTYPE svg PUBLIC "-//W3C//DTD SVG 1.1//EN"
 "http://www.w3.org/Graphics/SVG/1.1/DTD/svg11.dtd">
<!-- Generated by graphviz version 2.49.3 (20211027.1534)
 -->
<!-- Title: inheritance550c699b7c Pages: 1 -->
<svg width="576pt" height="49pt"
 viewBox="0.00 0.00 576.00 49.24" xmlns="http://www.w3.org/2000/svg" xmlns:xlink="http://www.w3.org/1999/xlink">
<g id="graph0" class="graph" transform="scale(0.59 0.59) rotate(0) translate(4 79)">
<title>inheritance550c699b7c</title>
<!-- CommandLineArgument -->
<g id="node1" class="node">
<title>CommandLineArgument</title>
<g id="a_node1"><a xlink:href="../pyTooling.CLIAbstraction.Argument.html#pyTooling.CLIAbstraction.Argument.CommandLineArgument" xlink:title="Base&#45;class for all *Argument* classes." target="_top">
<polygon fill="white" stroke="black" stroke-width="0.5" points="159,-56 0,-56 0,-37 159,-37 159,-56"/>
<text text-anchor="middle" x="79.5" y="-44" font-family="Vera Sans, DejaVu Sans, Liberation Sans, Arial, Helvetica, sans" font-size="10.00">CommandLineArgument</text>
</a>
</g>
</g>
<!-- NamedArgument -->
<g id="node4" class="node">
<title>NamedArgument</title>
<g id="a_node4"><a xlink:href="../pyTooling.CLIAbstraction.Argument.html#pyTooling.CLIAbstraction.Argument.NamedArgument" xlink:title="Base&#45;class for all command line arguments with a name." target="_top">
<polygon fill="white" stroke="black" stroke-width="0.5" points="313,-75 199,-75 199,-56 313,-56 313,-75"/>
<text text-anchor="middle" x="256" y="-63" font-family="Vera Sans, DejaVu Sans, Liberation Sans, Arial, Helvetica, sans" font-size="10.00">NamedArgument</text>
</a>
</g>
</g>
<!-- CommandLineArgument&#45;&gt;NamedArgument -->
<g id="edge4" class="edge">
<title>CommandLineArgument&#45;&gt;NamedArgument</title>
<path fill="none" stroke="black" stroke-width="0.5" d="M159.07,-55.06C170.68,-56.32 182.5,-57.61 193.69,-58.82"/>
<polygon fill="black" stroke="black" stroke-width="0.5" points="193.63,-60.58 198.79,-59.38 194,-57.1 193.63,-60.58"/>
</g>
<!-- ValuedArgument -->
<g id="node5" class="node">
<title>ValuedArgument</title>
<g id="a_node5"><a xlink:href="../pyTooling.CLIAbstraction.Argument.html#pyTooling.CLIAbstraction.Argument.ValuedArgument" xlink:title="Base&#45;class for all command line arguments with a value." target="_top">
<polygon fill="white" stroke="black" stroke-width="0.5" points="317,-38 195,-38 195,-19 317,-19 317,-38"/>
<text text-anchor="middle" x="256" y="-26" font-family="Vera Sans, DejaVu Sans, Liberation Sans, Arial, Helvetica, sans" font-size="10.00">ValuedArgument</text>
</a>
</g>
</g>
<!-- CommandLineArgument&#45;&gt;ValuedArgument -->
<g id="edge7" class="edge">
<title>CommandLineArgument&#45;&gt;ValuedArgument</title>
<path fill="none" stroke="black" stroke-width="0.5" d="M159.07,-38.4C169.32,-37.34 179.72,-36.26 189.72,-35.23"/>
<polygon fill="black" stroke="black" stroke-width="0.5" points="190.11,-36.95 194.91,-34.7 189.75,-33.47 190.11,-36.95"/>
</g>
<!-- Generic -->
<g id="node2" class="node">
<title>Generic</title>
<g id="a_node2"><a xlink:title="Abstract base class for generic types.">
<polygon fill="white" stroke="black" stroke-width="0.5" points="114,-19 45,-19 45,0 114,0 114,-19"/>
<text text-anchor="middle" x="79.5" y="-7" font-family="Vera Sans, DejaVu Sans, Liberation Sans, Arial, Helvetica, sans" font-size="10.00">Generic</text>
</a>
</g>
</g>
<!-- NamedAndValuedArgument -->
<g id="node3" class="node">
<title>NamedAndValuedArgument</title>
<g id="a_node3"><a xlink:title="Base&#45;class for all command line arguments with a name and a value.">
<polygon fill="white" stroke="black" stroke-width="0.5" points="535,-38 353,-38 353,-19 535,-19 535,-38"/>
<text text-anchor="middle" x="444" y="-26" font-family="Vera Sans, DejaVu Sans, Liberation Sans, Arial, Helvetica, sans" font-size="10.00">NamedAndValuedArgument</text>
</a>
</g>
</g>
<!-- Generic&#45;&gt;NamedAndValuedArgument -->
<g id="edge3" class="edge">
<title>Generic&#45;&gt;NamedAndValuedArgument</title>
<path fill="none" stroke="black" stroke-width="0.5" d="M114.24,-7.92C160.18,-6.12 244.94,-4.1 317,-9.5 339.87,-11.21 364.89,-14.66 386.56,-18.15"/>
<polygon fill="black" stroke="black" stroke-width="0.5" points="386.49,-19.91 391.7,-18.99 387.05,-16.45 386.49,-19.91"/>
</g>
<!-- Generic&#45;&gt;ValuedArgument -->
<g id="edge8" class="edge">
<title>Generic&#45;&gt;ValuedArgument</title>
<path fill="none" stroke="black" stroke-width="0.5" d="M114.15,-13.16C135.59,-15.5 164.1,-18.6 189.85,-21.41"/>
<polygon fill="black" stroke="black" stroke-width="0.5" points="189.8,-23.16 194.96,-21.96 190.18,-19.68 189.8,-23.16"/>
</g>
<!-- NamedKeyValuePairsArgument -->
<g id="node6" class="node">
<title>NamedKeyValuePairsArgument</title>
<g id="a_node6"><a xlink:title="Class and base&#45;class for all KeyValueFlag classes, which represents a flag argument with key and value">
<polygon fill="white" stroke="black" stroke-width="0.5" points="783,-38 571,-38 571,-19 783,-19 783,-38"/>
<text text-anchor="middle" x="677" y="-26" font-family="Vera Sans, DejaVu Sans, Liberation Sans, Arial, Helvetica, sans" font-size="10.00">NamedKeyValuePairsArgument</text>
</a>
</g>
</g>
<!-- NamedAndValuedArgument&#45;&gt;NamedKeyValuePairsArgument -->
<g id="edge5" class="edge">
<title>NamedAndValuedArgument&#45;&gt;NamedKeyValuePairsArgument</title>
<path fill="none" stroke="black" stroke-width="0.5" d="M535.3,-28.5C545.31,-28.5 555.58,-28.5 565.79,-28.5"/>
<polygon fill="black" stroke="black" stroke-width="0.5" points="565.8,-30.25 570.8,-28.5 565.8,-26.75 565.8,-30.25"/>
</g>
<!-- NamedArgument&#45;&gt;NamedAndValuedArgument -->
<g id="edge1" class="edge">
<title>NamedArgument&#45;&gt;NamedAndValuedArgument</title>
<path fill="none" stroke="black" stroke-width="0.5" d="M304.9,-55.97C330.94,-50.79 363.21,-44.37 390,-39.04"/>
<polygon fill="black" stroke="black" stroke-width="0.5" points="390.38,-40.75 394.94,-38.06 389.69,-37.32 390.38,-40.75"/>
</g>
<!-- ValuedArgument&#45;&gt;NamedAndValuedArgument -->
<g id="edge2" class="edge">
<title>ValuedArgument&#45;&gt;NamedAndValuedArgument</title>
<path fill="none" stroke="black" stroke-width="0.5" d="M317.13,-28.5C326.98,-28.5 337.4,-28.5 347.85,-28.5"/>
<polygon fill="black" stroke="black" stroke-width="0.5" points="347.98,-30.25 352.98,-28.5 347.98,-26.75 347.98,-30.25"/>
</g>
<!-- ShortKeyValueFlag -->
<g id="node7" class="node">
<title>ShortKeyValueFlag</title>
<g id="a_node7"><a xlink:href="../pyTooling.CLIAbstraction/pyTooling.CLIAbstraction.KeyValueFlag.html#pyTooling.CLIAbstraction.KeyValueFlag.ShortKeyValueFlag" xlink:title="Represents a :py:class:`NamedKeyValueFlagArgument` with a single dash in front of the switch name." target="_top">
<polygon fill="white" stroke="black" stroke-width="0.5" points="963,-38 819,-38 819,-19 963,-19 963,-38"/>
<text text-anchor="middle" x="891" y="-26" font-family="Vera Sans, DejaVu Sans, Liberation Sans, Arial, Helvetica, sans" font-size="10.00">ShortKeyValueFlag</text>
</a>
</g>
</g>
<!-- NamedKeyValuePairsArgument&#45;&gt;ShortKeyValueFlag -->
<g id="edge6" class="edge">
<title>NamedKeyValuePairsArgument&#45;&gt;ShortKeyValueFlag</title>
<path fill="none" stroke="black" stroke-width="0.5" d="M783.07,-28.5C793.35,-28.5 803.65,-28.5 813.57,-28.5"/>
<polygon fill="black" stroke="black" stroke-width="0.5" points="813.72,-30.25 818.72,-28.5 813.72,-26.75 813.72,-30.25"/>
</g>
</g>
</svg>
