<?xml version="1.0" encoding="UTF-8" standalone="no"?>
<!DOCTYPE svg PUBLIC "-//W3C//DTD SVG 1.1//EN"
 "http://www.w3.org/Graphics/SVG/1.1/DTD/svg11.dtd">
<!-- Generated by graphviz version 7.0.5 (20221223.1930)
 -->
<!-- Title: inheritancee5b0e203e3 Pages: 1 -->
<svg width="576pt" height="71pt"
 viewBox="0.00 0.00 576.00 71.36" xmlns="http://www.w3.org/2000/svg" xmlns:xlink="http://www.w3.org/1999/xlink">
<g id="graph0" class="graph" transform="scale(0.859701 0.859701) rotate(0) translate(4 79)">
<title>inheritancee5b0e203e3</title>
<!-- CommandLineArgument -->
<g id="node1" class="node">
<title>CommandLineArgument</title>
<g id="a_node1"><a xlink:href="../pyTooling.CLIAbstraction.Argument.html#pyTooling.CLIAbstraction.Argument.CommandLineArgument" xlink:title="Base&#45;class for all *Argument* classes." target="_top">
<polygon fill="white" stroke="black" stroke-width="0.5" points="159,-56 0,-56 0,-37 159,-37 159,-56"/>
<text text-anchor="middle" x="79.5" y="-44" font-family="Vera Sans, DejaVu Sans, Liberation Sans, Arial, Helvetica, sans" font-size="10.00">CommandLineArgument</text>
</a>
</g>
</g>
<!-- NamedArgument -->
<g id="node5" class="node">
<title>NamedArgument</title>
<g id="a_node5"><a xlink:href="../pyTooling.CLIAbstraction.Argument.html#pyTooling.CLIAbstraction.Argument.NamedArgument" xlink:title="Base&#45;class for all command line arguments with a name." target="_top">
<polygon fill="white" stroke="black" stroke-width="0.5" points="313,-75 199,-75 199,-56 313,-56 313,-75"/>
<text text-anchor="middle" x="256" y="-63" font-family="Vera Sans, DejaVu Sans, Liberation Sans, Arial, Helvetica, sans" font-size="10.00">NamedArgument</text>
</a>
</g>
</g>
<!-- CommandLineArgument&#45;&gt;NamedArgument -->
<g id="edge2" class="edge">
<title>CommandLineArgument&#45;&gt;NamedArgument</title>
<path fill="none" stroke="black" stroke-width="0.5" d="M159.33,-55.08C170.43,-56.29 181.71,-57.52 192.45,-58.69"/>
<polygon fill="black" stroke="black" stroke-width="0.5" points="192.79,-60.49 197.95,-59.29 193.17,-57.01 192.79,-60.49"/>
</g>
<!-- ValuedArgument -->
<g id="node6" class="node">
<title>ValuedArgument</title>
<g id="a_node6"><a xlink:href="../pyTooling.CLIAbstraction.Argument.html#pyTooling.CLIAbstraction.Argument.ValuedArgument" xlink:title="Base&#45;class for all command line arguments with a value." target="_top">
<polygon fill="white" stroke="black" stroke-width="0.5" points="317,-38 195,-38 195,-19 317,-19 317,-38"/>
<text text-anchor="middle" x="256" y="-26" font-family="Vera Sans, DejaVu Sans, Liberation Sans, Arial, Helvetica, sans" font-size="10.00">ValuedArgument</text>
</a>
</g>
</g>
<!-- CommandLineArgument&#45;&gt;ValuedArgument -->
<g id="edge6" class="edge">
<title>CommandLineArgument&#45;&gt;ValuedArgument</title>
<path fill="none" stroke="black" stroke-width="0.5" d="M159.33,-38.37C168.94,-37.38 178.69,-36.37 188.11,-35.4"/>
<polygon fill="black" stroke="black" stroke-width="0.5" points="189.02,-37.07 193.81,-34.81 188.66,-33.58 189.02,-37.07"/>
</g>
<!-- Generic -->
<g id="node2" class="node">
<title>Generic</title>
<g id="a_node2"><a xlink:title="Abstract base class for generic types.">
<polygon fill="white" stroke="black" stroke-width="0.5" points="114,-19 45,-19 45,0 114,0 114,-19"/>
<text text-anchor="middle" x="79.5" y="-7" font-family="Vera Sans, DejaVu Sans, Liberation Sans, Arial, Helvetica, sans" font-size="10.00">Generic</text>
</a>
</g>
</g>
<!-- NamedTupledArgument -->
<g id="node4" class="node">
<title>NamedTupledArgument</title>
<g id="a_node4"><a xlink:title="Class and base&#45;class for all TupleFlag classes, which represents an argument with separate value.">
<polygon fill="white" stroke="black" stroke-width="0.5" points="512,-38 353,-38 353,-19 512,-19 512,-38"/>
<text text-anchor="middle" x="432.5" y="-26" font-family="Vera Sans, DejaVu Sans, Liberation Sans, Arial, Helvetica, sans" font-size="10.00">NamedTupledArgument</text>
</a>
</g>
</g>
<!-- Generic&#45;&gt;NamedTupledArgument -->
<g id="edge5" class="edge">
<title>Generic&#45;&gt;NamedTupledArgument</title>
<path fill="none" stroke="black" stroke-width="0.5" d="M114.25,-7.76C160.2,-5.79 244.98,-3.57 317,-9.5 336.4,-11.1 357.45,-14.2 376.16,-17.43"/>
<polygon fill="black" stroke="black" stroke-width="0.5" points="376.43,-19.26 381.66,-18.4 377.04,-15.81 376.43,-19.26"/>
</g>
<!-- Generic&#45;&gt;ValuedArgument -->
<g id="edge7" class="edge">
<title>Generic&#45;&gt;ValuedArgument</title>
<path fill="none" stroke="black" stroke-width="0.5" d="M114.15,-13.16C135.14,-15.45 162.91,-18.47 188.23,-21.23"/>
<polygon fill="black" stroke="black" stroke-width="0.5" points="188.7,-23.04 193.86,-21.84 189.08,-19.56 188.7,-23.04"/>
</g>
<!-- LongTupleFlag -->
<g id="node3" class="node">
<title>LongTupleFlag</title>
<g id="a_node3"><a xlink:href="../pyTooling.CLIAbstraction/pyTooling.CLIAbstraction.ValuedTupleFlag.html#pyTooling.CLIAbstraction.ValuedTupleFlag.LongTupleFlag" xlink:title="Represents a :class:`ValuedTupleArgument` with a double dash in front of the switch name." target="_top">
<polygon fill="white" stroke="black" stroke-width="0.5" points="662,-38 548,-38 548,-19 662,-19 662,-38"/>
<text text-anchor="middle" x="605" y="-26" font-family="Vera Sans, DejaVu Sans, Liberation Sans, Arial, Helvetica, sans" font-size="10.00">LongTupleFlag</text>
</a>
</g>
</g>
<!-- NamedTupledArgument&#45;&gt;LongTupleFlag -->
<g id="edge1" class="edge">
<title>NamedTupledArgument&#45;&gt;LongTupleFlag</title>
<path fill="none" stroke="black" stroke-width="0.5" d="M512.26,-28.5C522.05,-28.5 531.94,-28.5 541.44,-28.5"/>
<polygon fill="black" stroke="black" stroke-width="0.5" points="542.18,-30.25 547.18,-28.5 542.18,-26.75 542.18,-30.25"/>
</g>
<!-- NamedArgument&#45;&gt;NamedTupledArgument -->
<g id="edge3" class="edge">
<title>NamedArgument&#45;&gt;NamedTupledArgument</title>
<path fill="none" stroke="black" stroke-width="0.5" d="M303.76,-55.58C326.75,-50.71 354.54,-44.82 378.33,-39.77"/>
<polygon fill="black" stroke="black" stroke-width="0.5" points="379.34,-41.35 383.87,-38.6 378.61,-37.92 379.34,-41.35"/>
</g>
<!-- ValuedArgument&#45;&gt;NamedTupledArgument -->
<g id="edge4" class="edge">
<title>ValuedArgument&#45;&gt;NamedTupledArgument</title>
<path fill="none" stroke="black" stroke-width="0.5" d="M317.05,-28.5C326.43,-28.5 336.28,-28.5 346.1,-28.5"/>
<polygon fill="black" stroke="black" stroke-width="0.5" points="346.78,-30.25 351.78,-28.5 346.78,-26.75 346.78,-30.25"/>
</g>
</g>
</svg>
