<?xml version="1.0" encoding="UTF-8" standalone="no"?>
<!DOCTYPE svg PUBLIC "-//W3C//DTD SVG 1.1//EN"
 "http://www.w3.org/Graphics/SVG/1.1/DTD/svg11.dtd">
<!-- Generated by graphviz version 2.49.3 (20211027.1534)
 -->
<!-- Title: inheritancec4ba958ce7 Pages: 1 -->
<svg width="460pt" height="64pt"
 viewBox="0.00 0.00 460.00 64.00" xmlns="http://www.w3.org/2000/svg" xmlns:xlink="http://www.w3.org/1999/xlink">
<g id="graph0" class="graph" transform="scale(1 1) rotate(0) translate(4 60)">
<title>inheritancec4ba958ce7</title>
<!-- BooleanFlag -->
<g id="node1" class="node">
<title>BooleanFlag</title>
<g id="a_node1"><a xlink:href="../pyTooling.CLIAbstraction/pyTooling.CLIAbstraction.BooleanFlag.html#pyTooling.CLIAbstraction.BooleanFlag.BooleanFlag" xlink:title="Class and base&#45;class for all BooleanFlag classes, which represents a flag argument with different pattern" target="_top">
<polygon fill="white" stroke="black" stroke-width="0.5" points="452,-37 353,-37 353,-18 452,-18 452,-37"/>
<text text-anchor="middle" x="402.5" y="-25" font-family="Vera Sans, DejaVu Sans, Liberation Sans, Arial, Helvetica, sans" font-size="10.00">BooleanFlag</text>
</a>
</g>
</g>
<!-- NamedArgument -->
<g id="node2" class="node">
<title>NamedArgument</title>
<g id="a_node2"><a xlink:href="../pyTooling.CLIAbstraction.Argument.html#pyTooling.CLIAbstraction.Argument.NamedArgument" xlink:title="Base&#45;class for all command line arguments with a name." target="_top">
<polygon fill="white" stroke="black" stroke-width="0.5" points="313,-56 199,-56 199,-37 313,-37 313,-56"/>
<text text-anchor="middle" x="256" y="-44" font-family="Vera Sans, DejaVu Sans, Liberation Sans, Arial, Helvetica, sans" font-size="10.00">NamedArgument</text>
</a>
</g>
</g>
<!-- NamedArgument&#45;&gt;BooleanFlag -->
<g id="edge1" class="edge">
<title>NamedArgument&#45;&gt;BooleanFlag</title>
<path fill="none" stroke="black" stroke-width="0.5" d="M313.28,-39.1C324.55,-37.62 336.37,-36.06 347.56,-34.59"/>
<polygon fill="black" stroke="black" stroke-width="0.5" points="347.92,-36.31 352.65,-33.92 347.46,-32.84 347.92,-36.31"/>
</g>
<!-- ValuedArgument -->
<g id="node3" class="node">
<title>ValuedArgument</title>
<g id="a_node3"><a xlink:href="../pyTooling.CLIAbstraction.Argument.html#pyTooling.CLIAbstraction.Argument.ValuedArgument" xlink:title="Base&#45;class for all command line arguments with a value." target="_top">
<polygon fill="white" stroke="black" stroke-width="0.5" points="317,-19 195,-19 195,0 317,0 317,-19"/>
<text text-anchor="middle" x="256" y="-7" font-family="Vera Sans, DejaVu Sans, Liberation Sans, Arial, Helvetica, sans" font-size="10.00">ValuedArgument</text>
</a>
</g>
</g>
<!-- ValuedArgument&#45;&gt;BooleanFlag -->
<g id="edge2" class="edge">
<title>ValuedArgument&#45;&gt;BooleanFlag</title>
<path fill="none" stroke="black" stroke-width="0.5" d="M317.03,-16.98C327.19,-18.24 337.7,-19.55 347.69,-20.8"/>
<polygon fill="black" stroke="black" stroke-width="0.5" points="347.69,-22.56 352.87,-21.44 348.12,-19.09 347.69,-22.56"/>
</g>
<!-- CommandLineArgument -->
<g id="node4" class="node">
<title>CommandLineArgument</title>
<g id="a_node4"><a xlink:href="../pyTooling.CLIAbstraction.Argument.html#pyTooling.CLIAbstraction.Argument.CommandLineArgument" xlink:title="Base&#45;class for all *Argument* classes." target="_top">
<polygon fill="white" stroke="black" stroke-width="0.5" points="159,-56 0,-56 0,-37 159,-37 159,-56"/>
<text text-anchor="middle" x="79.5" y="-44" font-family="Vera Sans, DejaVu Sans, Liberation Sans, Arial, Helvetica, sans" font-size="10.00">CommandLineArgument</text>
</a>
</g>
</g>
<!-- CommandLineArgument&#45;&gt;NamedArgument -->
<g id="edge3" class="edge">
<title>CommandLineArgument&#45;&gt;NamedArgument</title>
<path fill="none" stroke="black" stroke-width="0.5" d="M159.07,-46.5C170.68,-46.5 182.5,-46.5 193.69,-46.5"/>
<polygon fill="black" stroke="black" stroke-width="0.5" points="193.79,-48.25 198.79,-46.5 193.79,-44.75 193.79,-48.25"/>
</g>
<!-- CommandLineArgument&#45;&gt;ValuedArgument -->
<g id="edge4" class="edge">
<title>CommandLineArgument&#45;&gt;ValuedArgument</title>
<path fill="none" stroke="black" stroke-width="0.5" d="M125.44,-36.97C149.77,-31.81 179.89,-25.43 204.97,-20.11"/>
<polygon fill="black" stroke="black" stroke-width="0.5" points="205.38,-21.81 209.91,-19.06 204.66,-18.39 205.38,-21.81"/>
</g>
<!-- Generic -->
<g id="node5" class="node">
<title>Generic</title>
<g id="a_node5"><a xlink:title="Abstract base class for generic types.">
<polygon fill="white" stroke="black" stroke-width="0.5" points="114,-19 45,-19 45,0 114,0 114,-19"/>
<text text-anchor="middle" x="79.5" y="-7" font-family="Vera Sans, DejaVu Sans, Liberation Sans, Arial, Helvetica, sans" font-size="10.00">Generic</text>
</a>
</g>
</g>
<!-- Generic&#45;&gt;ValuedArgument -->
<g id="edge5" class="edge">
<title>Generic&#45;&gt;ValuedArgument</title>
<path fill="none" stroke="black" stroke-width="0.5" d="M114.15,-9.5C135.59,-9.5 164.1,-9.5 189.85,-9.5"/>
<polygon fill="black" stroke="black" stroke-width="0.5" points="189.96,-11.25 194.96,-9.5 189.96,-7.75 189.96,-11.25"/>
</g>
</g>
</svg>
