<?xml version="1.0" encoding="UTF-8" standalone="no"?>
<!DOCTYPE svg PUBLIC "-//W3C//DTD SVG 1.1//EN"
 "http://www.w3.org/Graphics/SVG/1.1/DTD/svg11.dtd">
<!-- Generated by graphviz version 2.49.3 (20211027.1534)
 -->
<!-- Title: inheritance30e830e5d5 Pages: 1 -->
<svg width="576pt" height="24pt"
 viewBox="0.00 0.00 576.00 24.30" xmlns="http://www.w3.org/2000/svg" xmlns:xlink="http://www.w3.org/1999/xlink">
<g id="graph0" class="graph" transform="scale(0.9 0.9) rotate(0) translate(4 23)">
<title>inheritance30e830e5d5</title>
<!-- CommandArgument -->
<g id="node1" class="node">
<title>CommandArgument</title>
<g id="a_node1"><a xlink:href="../pyTooling.CLIAbstraction/pyTooling.CLIAbstraction.Command.html#pyTooling.CLIAbstraction.Command.CommandArgument" xlink:title="Represents a command argument." target="_top">
<polygon fill="white" stroke="black" stroke-width="0.5" points="474,-19 345,-19 345,0 474,0 474,-19"/>
<text text-anchor="middle" x="409.5" y="-7" font-family="Vera Sans, DejaVu Sans, Liberation Sans, Arial, Helvetica, sans" font-size="10.00">CommandArgument</text>
</a>
</g>
</g>
<!-- WindowsCommand -->
<g id="node4" class="node">
<title>WindowsCommand</title>
<g id="a_node4"><a xlink:href="../pyTooling.CLIAbstraction/pyTooling.CLIAbstraction.Command.html#pyTooling.CLIAbstraction.Command.WindowsCommand" xlink:title="Represents a command name with a single slash." target="_top">
<polygon fill="white" stroke="black" stroke-width="0.5" points="632,-19 510,-19 510,0 632,0 632,-19"/>
<text text-anchor="middle" x="571" y="-7" font-family="Vera Sans, DejaVu Sans, Liberation Sans, Arial, Helvetica, sans" font-size="10.00">WindowsCommand</text>
</a>
</g>
</g>
<!-- CommandArgument&#45;&gt;WindowsCommand -->
<g id="edge3" class="edge">
<title>CommandArgument&#45;&gt;WindowsCommand</title>
<path fill="none" stroke="black" stroke-width="0.5" d="M474.46,-9.5C484.42,-9.5 494.73,-9.5 504.72,-9.5"/>
<polygon fill="black" stroke="black" stroke-width="0.5" points="504.91,-11.25 509.91,-9.5 504.91,-7.75 504.91,-11.25"/>
</g>
<!-- NamedArgument -->
<g id="node2" class="node">
<title>NamedArgument</title>
<g id="a_node2"><a xlink:href="../pyTooling.CLIAbstraction.Argument.html#pyTooling.CLIAbstraction.Argument.NamedArgument" xlink:title="Base&#45;class for all command line arguments with a name." target="_top">
<polygon fill="white" stroke="black" stroke-width="0.5" points="309,-19 195,-19 195,0 309,0 309,-19"/>
<text text-anchor="middle" x="252" y="-7" font-family="Vera Sans, DejaVu Sans, Liberation Sans, Arial, Helvetica, sans" font-size="10.00">NamedArgument</text>
</a>
</g>
</g>
<!-- NamedArgument&#45;&gt;CommandArgument -->
<g id="edge1" class="edge">
<title>NamedArgument&#45;&gt;CommandArgument</title>
<path fill="none" stroke="black" stroke-width="0.5" d="M309.14,-9.5C319.08,-9.5 329.54,-9.5 339.78,-9.5"/>
<polygon fill="black" stroke="black" stroke-width="0.5" points="339.79,-11.25 344.79,-9.5 339.79,-7.75 339.79,-11.25"/>
</g>
<!-- CommandLineArgument -->
<g id="node3" class="node">
<title>CommandLineArgument</title>
<g id="a_node3"><a xlink:href="../pyTooling.CLIAbstraction.Argument.html#pyTooling.CLIAbstraction.Argument.CommandLineArgument" xlink:title="Base&#45;class for all *Argument* classes." target="_top">
<polygon fill="white" stroke="black" stroke-width="0.5" points="159,-19 0,-19 0,0 159,0 159,-19"/>
<text text-anchor="middle" x="79.5" y="-7" font-family="Vera Sans, DejaVu Sans, Liberation Sans, Arial, Helvetica, sans" font-size="10.00">CommandLineArgument</text>
</a>
</g>
</g>
<!-- CommandLineArgument&#45;&gt;NamedArgument -->
<g id="edge2" class="edge">
<title>CommandLineArgument&#45;&gt;NamedArgument</title>
<path fill="none" stroke="black" stroke-width="0.5" d="M159.26,-9.5C169.52,-9.5 179.9,-9.5 189.8,-9.5"/>
<polygon fill="black" stroke="black" stroke-width="0.5" points="189.94,-11.25 194.94,-9.5 189.94,-7.75 189.94,-11.25"/>
</g>
</g>
</svg>
